<svg xmlns="http://www.w3.org/2000/svg" width="1440" height="900" viewBox="0 0 1440 900" role="img" aria-labelledby="title desc">
<title id="title">Animated portfolio interface preview</title><desc id="desc">A browser mockup cycling between the home page, archive, and dark mode.</desc>
<style>
.text{font-family:Arial,Helvetica,sans-serif}.small{font-size:16px}.nav{font-size:17px}.hero{font-size:43px;font-weight:700}.sub{font-size:22px}.section{font-size:29px;font-weight:700}.card-title{font-size:23px;font-weight:700}.muted{fill:#68706b}.dark-muted{fill:#9aa39c}.scene{opacity:0;animation:cycle 12s infinite}.s1{animation-delay:0s}.s2{animation-delay:4s}.s3{animation-delay:8s}@keyframes cycle{0%,30%{opacity:1}33%,100%{opacity:0}}
</style>
<rect width="1440" height="900" fill="#101216"/><rect x="30" y="25" width="1380" height="850" rx="24" fill="#24272d" stroke="#3a3f48" stroke-width="2"/><circle cx="65" cy="64" r="7" fill="#ff5f57"/><circle cx="93" cy="64" r="7" fill="#febc2e"/><circle cx="121" cy="64" r="7" fill="#28c840"/><rect x="190" y="47" width="1080" height="35" rx="12" fill="#17191d"/><text x="215" y="70" class="text small" fill="#b9bec8">andrei-stefan20.github.io</text>
<g class="scene s1"><rect x="30" y="100" width="1380" height="775" fill="#fdfdfd"/><path d="M30 132H1410M30 164H1410M62 100V875M94 100V875M126 100V875M158 100V875M190 100V875M222 100V875M254 100V875M286 100V875M318 100V875M350 100V875M382 100V875M414 100V875M446 100V875M478 100V875M510 100V875M542 100V875M574 100V875M606 100V875M638 100V875M670 100V875M702 100V875M734 100V875M766 100V875M798 100V875M830 100V875M862 100V875M894 100V875M926 100V875M958 100V875M990 100V875M1022 100V875M1054 100V875M1086 100V875M1118 100V875M1150 100V875M1182 100V875M1214 100V875M1246 100V875M1278 100V875M1310 100V875M1342 100V875M1374 100V875" stroke="#eeeeee"/><rect x="30" y="100" width="1380" height="70" fill="#fdfdfd"/><text x="85" y="143" class="text" font-size="24" fill="#171717">Andrei Alexandru Stefan</text><text x="760" y="143" class="text nav" fill="#2b2b2b">Home</text><text x="850" y="143" class="text nav" fill="#171717">About</text><text x="940" y="143" class="text nav" fill="#171717">Projects</text><text x="1045" y="143" class="text nav" fill="#171717">Writing</text><text x="1140" y="143" class="text nav" fill="#171717">Archive</text><text x="1270" y="143" class="text nav muted">IT  ◫  ◐</text><circle cx="195" cy="315" r="80" fill="#d9dce1"/><text x="335" y="255" class="text" font-size="21" fill="#68706b">MSc in AI @ Uniba · Italy</text><text x="335" y="315" class="text hero" fill="#171717">Full-Stack Developer &amp; AI researcher</text><text x="335" y="365" class="text sub" fill="#171717">Reliable software, knowledge graphs, LLMs, and interpretable retrieval.</text><text x="115" y="465" class="text section" fill="#171717">Latest work &amp; writing</text><rect x="115" y="505" width="1210" height="125" rx="8" fill="#fff" stroke="#dedede"/><text x="140" y="535" class="text" font-size="14" fill="#68706b">RESEARCH · JUL 2026</text><text x="140" y="575" class="text card-title" fill="#171717">SLIDERS: Steering Image Retrieval</text><text x="140" y="610" class="text small" fill="#68706b">Sparse visual features become controls for changing retrieval.</text><text x="1280" y="580" class="text" font-size="31" fill="#2b2b2b">→</text><rect x="115" y="650" width="1210" height="125" rx="8" fill="#fff" stroke="#dedede"/><text x="140" y="680" class="text" font-size="14" fill="#68706b">KNOWLEDGE GRAPHS · JUN 2026</text><text x="140" y="720" class="text card-title" fill="#171717">The Bottleneck Wasn't the LLM</text><text x="140" y="755" class="text small" fill="#68706b">What actually improved Text-to-SPARQL generation.</text></g>
<g class="scene s2"><rect x="30" y="100" width="1380" height="775" fill="#fdfdfd"/><rect x="30" y="100" width="1380" height="70" fill="#fdfdfd"/><text x="85" y="143" class="text" font-size="24" fill="#171717">Andrei Alexandru Stefan</text><text x="1140" y="143" class="text nav" fill="#2b2b2b">Archive</text><text x="115" y="240" class="text hero" fill="#171717">Archive</text><text x="115" y="285" class="text sub muted">Projects and articles in one searchable place.</text><rect x="115" y="325" width="1210" height="80" rx="8" fill="#fff" stroke="#dedede"/><text x="145" y="375" class="text" font-size="19" fill="#68706b">⌕  Search by title, type, topic or technology…</text><g class="text small"><rect x="115" y="435" width="62" height="38" rx="19" fill="#fdfdfd" stroke="#2b2b2b"/><text x="134" y="460" fill="#2b2b2b">All</text><rect x="190" y="435" width="95" height="38" rx="19" fill="#fdfdfd" stroke="#dedede"/><text x="207" y="460" fill="#68706b">Projects</text><rect x="298" y="435" width="90" height="38" rx="19" fill="#fdfdfd" stroke="#dedede"/><text x="315" y="460" fill="#68706b">Articles</text><rect x="401" y="435" width="78" height="38" rx="19" fill="#fdfdfd" stroke="#dedede"/><text x="420" y="460" fill="#68706b">Python</text><rect x="492" y="435" width="176" height="38" rx="19" fill="#fdfdfd" stroke="#2b2b2b"/><text x="510" y="460" fill="#2b2b2b">Knowledge Graphs</text></g><path d="M115 520H1325M115 630H1325M115 740H1325" stroke="#dedede"/><text x="115" y="560" class="text small muted">13 JUL 2026</text><text x="280" y="550" class="text" font-size="14" fill="#2b2b2b">PROJECT · RESEARCH</text><text x="280" y="585" class="text card-title" fill="#171717">SLIDERS: Steering Image Retrieval with Sparse Visual Features</text><text x="115" y="670" class="text small muted">22 JUN 2026</text><text x="280" y="660" class="text" font-size="14" fill="#2b2b2b">ARTICLE · KNOWLEDGE GRAPHS</text><text x="280" y="695" class="text card-title" fill="#171717">The Bottleneck Wasn't the LLM: What Actually Improved Text-to-SPARQL</text></g>
<g class="scene s3"><rect x="30" y="100" width="1380" height="775" fill="#15171a"/><path d="M30 132H1410M30 164H1410M62 100V875M94 100V875M126 100V875M158 100V875M190 100V875M222 100V875M254 100V875M286 100V875M318 100V875M350 100V875M382 100V875M414 100V875M446 100V875M478 100V875M510 100V875M542 100V875M574 100V875M606 100V875M638 100V875M670 100V875M702 100V875M734 100V875M766 100V875M798 100V875M830 100V875M862 100V875M894 100V875M926 100V875M958 100V875M990 100V875M1022 100V875M1054 100V875M1086 100V875M1118 100V875M1150 100V875M1182 100V875M1214 100V875M1246 100V875M1278 100V875M1310 100V875M1342 100V875M1374 100V875" stroke="#202328"/><rect x="30" y="100" width="1380" height="70" fill="#15171a"/><text x="85" y="143" class="text" font-size="24" fill="#e8e8e8">Andrei Alexandru Stefan</text><text x="760" y="143" class="text nav" fill="#9da6ff">Home</text><text x="850" y="143" class="text nav" fill="#e8e8e8">About</text><text x="940" y="143" class="text nav" fill="#e8e8e8">Projects</text><text x="1045" y="143" class="text nav" fill="#e8e8e8">Writing</text><text x="1140" y="143" class="text nav" fill="#e8e8e8">Archive</text><circle cx="195" cy="315" r="80" fill="#30343a"/><text x="335" y="255" class="text" font-size="21" fill="#9aa39c">MSc in AI @ Uniba · Italy</text><text x="335" y="315" class="text hero" fill="#e8e8e8">Full-Stack Developer &amp; AI researcher</text><text x="335" y="365" class="text sub" fill="#e8e8e8">Reliable software, knowledge graphs, LLMs, and interpretable retrieval.</text><text x="115" y="465" class="text section" fill="#e8e8e8">Latest work &amp; writing</text><rect x="115" y="505" width="1210" height="125" rx="8" fill="#1d2024" stroke="#2c2f33"/><text x="140" y="535" class="text" font-size="14" fill="#9aa39c">RESEARCH · JUL 2026</text><text x="140" y="575" class="text card-title" fill="#e8e8e8">SLIDERS: Steering Image Retrieval</text><text x="140" y="610" class="text small" fill="#9aa39c">Sparse visual features become controls for changing retrieval.</text><text x="1280" y="580" class="text" font-size="31" fill="#9da6ff">→</text><rect x="115" y="650" width="1210" height="125" rx="8" fill="#1d2024" stroke="#2c2f33"/><text x="140" y="680" class="text" font-size="14" fill="#9aa39c">KNOWLEDGE GRAPHS · JUN 2026</text><text x="140" y="720" class="text card-title" fill="#e8e8e8">The Bottleneck Wasn't the LLM</text><text x="140" y="755" class="text small" fill="#9aa39c">What actually improved Text-to-SPARQL generation.</text></g>
</svg>