<svg xmlns="http://www.w3.org/2000/svg" width="1200" height="760" viewBox="0 0 1200 760"><rect width="1200" height="760" fill="#101216"/><rect x="24" y="22" width="1152" height="716" rx="20" fill="#24272d"/><circle cx="52" cy="55" r="6" fill="#ff5f57"/><circle cx="76" cy="55" r="6" fill="#febc2e"/><circle cx="100" cy="55" r="6" fill="#28c840"/><rect x="155" y="40" width="890" height="30" rx="10" fill="#17191d"/><text x="175" y="61" font-family="Arial" font-size="14" fill="#b9bec8">andrei-stefan20.github.io</text><rect x="24" y="90" width="1152" height="648" fill="#15171a"/><path d="M24 122H1176M24 154H1176M56 90V738M88 90V738M120 90V738M152 90V738M184 90V738M216 90V738M248 90V738M280 90V738M312 90V738M344 90V738M376 90V738M408 90V738M440 90V738M472 90V738M504 90V738M536 90V738M568 90V738M600 90V738M632 90V738M664 90V738M696 90V738M728 90V738M760 90V738M792 90V738M824 90V738M856 90V738M888 90V738M920 90V738M952 90V738M984 90V738M1016 90V738M1048 90V738M1080 90V738M1112 90V738M1144 90V738" stroke="#202328"/><rect x="24" y="90" width="1152" height="62" fill="#15171a"/><text x="70" y="129" font-family="Arial" font-size="21" fill="#e8e8e8">Andrei Alexandru Stefan</text><text x="635" y="129" font-family="Arial" font-size="15" fill="#9da6ff">Home</text><text x="710" y="129" font-family="Arial" font-size="15" fill="#e8e8e8">About</text><text x="785" y="129" font-family="Arial" font-size="15" fill="#e8e8e8">Projects</text><text x="875" y="129" font-family="Arial" font-size="15" fill="#e8e8e8">Writing</text><text x="955" y="129" font-family="Arial" font-size="15" fill="#e8e8e8">Archive</text><circle cx="160" cy="280" r="66" fill="#30343a"/><text x="275" y="235" font-family="Arial" font-size="18" fill="#9aa39c">MSc in AI @ Uniba · Italy</text><text x="275" y="285" font-family="Arial" font-size="36" font-weight="700" fill="#e8e8e8">Full-Stack Developer &amp; AI researcher</text><text x="275" y="330" font-family="Arial" font-size="19" fill="#e8e8e8">Reliable software, knowledge graphs, LLMs, and interpretable retrieval.</text><text x="95" y="410" font-family="Arial" font-size="25" font-weight="700" fill="#e8e8e8">Latest work &amp; writing</text><rect x="95" y="445" width="1010" height="105" rx="7" fill="#1d2024" stroke="#2c2f33"/><text x="118" y="475" font-family="Arial" font-size="13" fill="#9aa39c">RESEARCH · JUL 2026</text><text x="118" y="510" font-family="Arial" font-size="21" font-weight="700" fill="#e8e8e8">SLIDERS: Steering Image Retrieval</text><text x="118" y="537" font-family="Arial" font-size="15" fill="#9aa39c">Sparse visual features become controls for changing retrieval.</text><rect x="95" y="570" width="1010" height="105" rx="7" fill="#1d2024" stroke="#2c2f33"/><text x="118" y="600" font-family="Arial" font-size="13" fill="#9aa39c">KNOWLEDGE GRAPHS · JUN 2026</text><text x="118" y="635" font-family="Arial" font-size="21" font-weight="700" fill="#e8e8e8">The Bottleneck Wasn't the LLM</text></svg>