<svg xmlns="http://www.w3.org/2000/svg" width="1200" height="760" viewBox="0 0 1200 760"><rect width="1200" height="760" fill="#101216"/><rect x="24" y="22" width="1152" height="716" rx="20" fill="#24272d"/><circle cx="52" cy="55" r="6" fill="#ff5f57"/><circle cx="76" cy="55" r="6" fill="#febc2e"/><circle cx="100" cy="55" r="6" fill="#28c840"/><rect x="155" y="40" width="890" height="30" rx="10" fill="#17191d"/><text x="175" y="61" font-family="Arial" font-size="14" fill="#b9bec8">andrei-stefan20.github.io/archive/</text><rect x="24" y="90" width="1152" height="648" fill="#fdfdfd"/><rect x="24" y="90" width="1152" height="62" fill="#fdfdfd"/><text x="70" y="129" font-family="Arial" font-size="21" fill="#171717">Andrei Alexandru Stefan</text><text x="955" y="129" font-family="Arial" font-size="15" fill="#2b2b2b">Archive</text><text x="95" y="220" font-family="Arial" font-size="38" font-weight="700" fill="#171717">Archive</text><text x="95" y="258" font-family="Arial" font-size="18" fill="#68706b">Projects and articles in one searchable place.</text><rect x="95" y="295" width="1010" height="66" rx="8" fill="#fff" stroke="#dedede"/><text x="125" y="336" font-family="Arial" font-size="18" fill="#68706b">⌕  Search by title, type, topic or technology…</text><g font-family="Arial" font-size="14"><rect x="95" y="390" width="58" height="34" rx="17" fill="#fff" stroke="#2b2b2b"/><text x="113" y="412" fill="#2b2b2b">All</text><rect x="165" y="390" width="90" height="34" rx="17" fill="#fff" stroke="#dedede"/><text x="184" y="412" fill="#68706b">Projects</text><rect x="267" y="390" width="84" height="34" rx="17" fill="#fff" stroke="#dedede"/><text x="285" y="412" fill="#68706b">Articles</text><rect x="363" y="390" width="72" height="34" rx="17" fill="#fff" stroke="#dedede"/><text x="381" y="412" fill="#68706b">Python</text><rect x="447" y="390" width="160" height="34" rx="17" fill="#fff" stroke="#2b2b2b"/><text x="465" y="412" fill="#2b2b2b">Knowledge Graphs</text></g><path d="M95 466H1105M95 565H1105M95 664H1105" stroke="#dedede"/><text x="95" y="502" font-family="Arial" font-size="13" fill="#68706b">13 JUL 2026</text><text x="250" y="493" font-family="Arial" font-size="13" fill="#2b2b2b">PROJECT · RESEARCH</text><text x="250" y="528" font-family="Arial" font-size="20" font-weight="700" fill="#171717">SLIDERS: Steering Image Retrieval with Sparse Visual Features</text><text x="95" y="601" font-family="Arial" font-size="13" fill="#68706b">22 JUN 2026</text><text x="250" y="592" font-family="Arial" font-size="13" fill="#2b2b2b">ARTICLE · KNOWLEDGE GRAPHS</text><text x="250" y="627" font-family="Arial" font-size="20" font-weight="700" fill="#171717">The Bottleneck Wasn't the LLM: What Actually Improved Text-to-SPARQL</text><text x="1080" y="527" font-family="Arial" font-size="25" fill="#2b2b2b">→</text><text x="1080" y="626" font-family="Arial" font-size="25" fill="#2b2b2b">→</text></svg>